HIERARCHY
ROOT Hips
{
  OFFSET -33.9132 29.2015 117.021
  CHANNELS 6 Xposition Yposition Zposition Zrotation Xrotation Yrotation
  JOINT LeftUpLeg
  {
    OFFSET 8.64259 1.95398 -2.38835
    CHANNELS 3 Zrotation Xrotation Yrotation
    JOINT LeftLeg
    {
      OFFSET 43.7702 0 0
      CHANNELS 3 Zrotation Xrotation Yrotation
      JOINT LeftFoot
      {
        OFFSET 40.6238 0 0
        CHANNELS 3 Zrotation Xrotation Yrotation
        JOINT LeftToeBase
        {
          OFFSET 12.7242 0 0
          CHANNELS 3 Zrotation Xrotation Yrotation
          End Site
          {
            OFFSET 0 0 0
          }
        }
      }
    }
  }
  JOINT RightUpLeg
  {
    OFFSET -8.2249 1.95398 -2.59336
    CHANNELS 3 Zrotation Xrotation Yrotation
    JOINT RightLeg
    {
      OFFSET 43.5653 0 0
      CHANNELS 3 Zrotation Xrotation Yrotation
      JOINT RightFoot
      {
        OFFSET 40.6238 0 0
        CHANNELS 3 Zrotation Xrotation Yrotation
        JOINT RightToeBase
        {
          OFFSET 12.7242 0 0
          CHANNELS 3 Zrotation Xrotation Yrotation
          End Site
          {
            OFFSET 0 0 0
          }
        }
      }
    }
  }
  JOINT Spine
  {
    OFFSET 0.165834 0.87714 6.61349
    CHANNELS 3 Zrotation Xrotation Yrotation
    JOINT Spine1
    {
      OFFSET 7.38963 1.71661e-005 0
      CHANNELS 3 Zrotation Xrotation Yrotation
      JOINT Spine2
      {
        OFFSET 11.9445 1.14441e-005 0
        CHANNELS 3 Zrotation Xrotation Yrotation
        JOINT Spine3
        {
          OFFSET 14.7254 4.19617e-005 0
          CHANNELS 3 Zrotation Xrotation Yrotation
          JOINT Spine4
          {
            OFFSET 10.9679 0 0
            CHANNELS 3 Zrotation Xrotation Yrotation
            JOINT RightShoulder
            {
              OFFSET 2.46616 -1.6653 3.69651
              CHANNELS 3 Zrotation Xrotation Yrotation
              JOINT RightArm
              {
                OFFSET 13.0012 0 0
                CHANNELS 3 Zrotation Xrotation Yrotation
                JOINT RightForeArm
                {
                  OFFSET 28.7848 1.62311e-005 0
                  CHANNELS 3 Zrotation Xrotation Yrotation
                  JOINT RightHand
                  {
                    OFFSET 26.5688 1.62095e-005 0
                    CHANNELS 3 Zrotation Xrotation Yrotation
                    End Site
                    {
                      OFFSET 0 0 0
                    }
                  }
                }
              }
            }
            JOINT LeftShoulder
            {
              OFFSET 2.38034 -1.29275 -3.7523
              CHANNELS 3 Zrotation Xrotation Yrotation
              JOINT LeftArm
              {
                OFFSET 16.3182 6.07031e-005 0
                CHANNELS 3 Zrotation Xrotation Yrotation
                JOINT LeftForeArm
                {
                  OFFSET 27.0901 0 0
                  CHANNELS 3 Zrotation Xrotation Yrotation
                  JOINT LeftHand
                  {
                    OFFSET 24.5451 1.51738e-005 0
                    CHANNELS 3 Zrotation Xrotation Yrotation
                    End Site
                    {
                      OFFSET 0 0 0
                    }
                  }
                }
              }
            }
            JOINT Neck
            {
              OFFSET 5.0226 -0.0266342 0
              CHANNELS 3 Zrotation Xrotation Yrotation
              JOINT Head
              {
                OFFSET 6.69364 2.86102e-005 0
                CHANNELS 3 Zrotation Xrotation Yrotation
                End Site
                {
                  OFFSET 0 0 0
                }
              }
            }
          }
        }
      }
    }
  }
}
MOTION
Frames:	6
Frame Time:	0.0416667
-251.773 60.8094 -231.573 117.824 -39.2844 126.563 163.539 54.2509 144.575 -114.356 18.4731 5.27641 89.2108 23.983 2.17066 40.4186 2.90376 7.4733 135.785 38.9215 95.0112 -109.971 -11.7374 -4.70803 90.003 -21.9679 -2.63837 35.789 -3.61774 2.61613 1.6292 16.7466 -92.635 -6.60308 2.39519 -4.74641 -18.2809 2.18425 -4.84694 -40.7851 3.71001 -3.80898 -20.7724 3.71002 -3.80899 73.3311 -32.7609 -135.706 20.5152 18.506 -35.3575 -112.289 -65.0856 -109.572 -28.7337 -3.55178 8.91982 -90.8026 -25.4081 69.9936 -22.5586 -4.624 -80.2839 -9.37794 74.1501 -0.0357044 27.4798 1.77634 6.47107 24.9253 -6.66388 -1.67903 5.08759 -6.0962 -4.65188 
-251.631 60.6786 -231.51 117.898 -39.0683 126.717 163.308 54.0314 144.769 -114.587 18.2055 5.24438 89.794 24.2513 1.82482 40.2564 2.83618 7.42487 135.646 38.7746 94.6744 -110.175 -12.0532 -4.75092 90.095 -22.0675 -2.69524 35.9377 -3.67627 2.59343 1.63808 16.7695 -92.6399 -6.64868 2.41196 -4.75174 -18.3264 2.20073 -4.85301 -40.8309 3.72759 -3.80904 -20.8182 3.72759 -3.80904 73.2364 -32.9412 -135.737 20.6696 18.5417 -34.5126 -110.625 -63.5885 -107.853 -27.3916 -3.22808 8.30385 -90.5885 -24.9963 70.2549 -22.83 -4.38425 -80.371 -9.28511 74.6623 -0.0368666 27.653 1.78891 6.54392 24.8811 -6.26407 -2.20987 4.55963 -5.42443 -3.35945 
-251.624 60.4839 -231.543 117.347 -39.2141 126.514 162.326 54.4507 145.423 -114.861 18.1285 5.20159 89.7278 24.2059 1.92268 40.4838 2.86902 7.69948 135.127 39.196 95.2947 -110.434 -12.0208 -4.74794 89.9108 -21.9923 -2.97688 36.2771 -3.86325 2.86944 1.64934 16.7205 -92.6624 -6.55033 2.42561 -4.79685 -18.2283 2.2124 -4.89866 -40.7319 3.75414 -3.84802 -20.7193 3.75413 -3.84803 73.0767 -33.0966 -135.894 20.5665 18.616 -34.6355 -110.93 -63.9262 -108.175 -27.6657 -3.26594 8.31705 -90.699 -25.0429 70.0498 -23.6602 -4.53708 -80.2418 -8.8048 75.3083 -0.0384497 28.4825 1.83138 6.66084 24.8347 -5.91069 -2.16683 4.24842 -5.06721 -2.93251 
-251.758 60.2227 -231.605 116.251 -39.6915 126.082 160.542 55.3723 146.784 -115.102 17.7128 5.1561 89.6423 23.9121 1.77176 40.578 2.93459 7.64032 134.453 39.9807 96.7541 -110.601 -11.4549 -4.68155 89.8649 -21.7882 -2.66888 35.7157 -3.61389 2.77657 1.67468 16.6317 -92.6799 -6.37199 2.46726 -4.83196 -18.0499 2.25249 -4.93556 -40.5536 3.80441 -3.86903 -20.541 3.8044 -3.86903 73.2598 -32.9966 -135.66 20.8074 18.3675 -34.702 -110.964 -63.6174 -108.165 -27.3332 -3.25561 8.4469 -90.635 -24.8155 70.0845 -23.5594 -4.39549 -79.8988 -8.92394 74.7144 -0.0369893 28.3075 1.83421 6.68704 24.6197 -5.38987 -1.81005 4.45052 -4.7202 -3.17088 
-252.006 59.9311 -231.585 114.983 -40.2253 125.579 158.291 56.2867 148.643 -115.279 17.3451 5.1045 89.7534 23.6921 1.49419 40.4542 2.81241 7.83741 134.095 40.6503 99.0145 -110.794 -9.63676 -4.52969 90.1869 -22.1489 -3.21091 36.0635 -3.87093 3.45697 1.72557 16.5519 -92.7088 -6.21096 2.55604 -4.88231 -17.889 2.33895 -4.98975 -40.3934 3.90419 -3.89041 -20.3808 3.90417 -3.89041 73.4286 -33.0133 -135.367 20.8549 18.2445 -35.3701 -111.149 -64.1403 -108.402 -28.0612 -3.39862 8.65499 -90.6066 -25.3091 70.3483 -22.7015 -4.55454 -80.3024 -9.40438 73.0433 -0.0334359 31.8453 2.22132 7.61128 25.2556 -5.21135 -1.62217 4.22389 -4.60394 -3.29218 
-252.15 59.5146 -231.775 113.241 -41.0815 124.94 155.174 57.6773 151.213 -115.777 16.6921 5.03651 89.6999 23.253 1.00121 40.3739 2.66279 8.19662 132.703 42.0329 101.33 -111.079 -9.59893 -4.49357 89.6321 -21.5441 -2.76288 37.0301 -4.15379 2.71887 1.78473 16.4032 -92.7293 -5.91187 2.6616 -4.92073 -17.5898 2.44272 -5.03278 -40.0957 4.01639 -3.89534 -20.0831 4.01638 -3.89536 73.493 -32.8471 -135.375 21.0194 18.2696 -34.3765 -110.456 -62.4314 -107.551 -26.8527 -3.21798 8.53704 -90.5129 -25.334 70.5474 -22.956 -4.53079 -80.3093 -9.3854 71.8861 -0.0313648 34.0059 2.23877 7.3501 25.3685 -4.9595 -1.35996 4.35381 -4.47003 -3.48423 
